<svg xmlns="http://www.w3.org/2000/svg" xmlns:xlink="http://www.w3.org/1999/xlink" aria-hidden="true" role="button" class="text-[24px] el-tooltip__trigger el-tooltip__trigger" id="el-id-7852-141" tabindex="0" aria-controls="el-id-7852-142" aria-expanded="true" aria-haspopup="menu" width="1em" height="1em" viewBox="0 0 24 24" data-v-d061c9a2="" style="outline: none;"><path fill="currentColor" d="M12 3c-1.1 0-2 .9-2 2s.9 2 2 2s2-.9 2-2s-.9-2-2-2zm0 14c-1.1 0-2 .9-2 2s.9 2 2 2s2-.9 2-2s-.9-2-2-2zm0-7c-1.1 0-2 .9-2 2s.9 2 2 2s2-.9 2-2s-.9-2-2-2z"></path></svg>